<svg xmlns="http://www.w3.org/2000/svg" height="40" viewBox="0 96 960 960" width="40"><path d="M277.333 836Q169 836 93.167 760.132q-75.833-75.867-75.833-184.25 0-108.382 75.833-184.132T277.333 316h405.334Q791 316 866.833 391.868q75.833 75.867 75.833 184.25 0 108.382-75.833 184.132T682.667 836H277.333Zm-.588-135.334q51.977 0 88.282-36.384 36.306-36.384 36.306-88.36 0-51.977-36.384-88.283-36.384-36.305-88.361-36.305-51.977 0-88.282 36.384t-36.305 88.36q0 51.977 36.383 88.283 36.384 36.305 88.361 36.305Z"/></svg>